<svg width="610" height="273" viewBox="0 0 610 273" fill="none" xmlns="http://www.w3.org/2000/svg">
<g clip-path="url(#clip0_40_728)">
<path d="M537.694 39.7034C547.033 39.7034 554.603 47.2931 554.603 56.6555C554.603 66.0179 547.033 73.6077 537.694 73.6077C528.354 73.6077 520.784 66.0179 520.784 56.6555C520.784 47.2931 528.354 39.7034 537.694 39.7034Z" fill="#04A761"/>
<path d="M368.136 56.6555C368.136 66.017 375.707 73.6077 385.046 73.6077C394.384 73.6077 401.955 66.017 401.955 56.6555C401.955 47.294 394.384 39.7034 385.046 39.7034C375.707 39.7034 368.136 47.294 368.136 56.6555Z" fill="#04A761"/>
<path d="M215.488 56.6555C215.488 66.017 223.06 73.6077 232.398 73.6077C241.736 73.6077 249.308 66.017 249.308 56.6555C249.308 47.294 241.736 39.7034 232.398 39.7034C223.06 39.7034 215.488 47.294 215.488 56.6555Z" fill="#04A761"/>
<path d="M79.7496 39.7034C89.0886 39.7034 96.6594 47.2931 96.6594 56.6555C96.6594 66.0179 89.0886 73.6077 79.7496 73.6077C70.4105 73.6077 62.8397 66.0179 62.8397 56.6555C62.8397 47.2931 70.4105 39.7034 79.7496 39.7034Z" fill="#04A761"/>
<path d="M520.784 215.021C520.784 224.383 528.355 231.973 537.694 231.973C547.032 231.973 554.603 224.383 554.603 215.021C554.603 205.66 547.032 198.069 537.694 198.069C528.355 198.069 520.784 205.66 520.784 215.021Z" fill="#04A761"/>
<path d="M368.136 215.021C368.136 224.383 375.707 231.973 385.046 231.973C394.384 231.973 401.955 224.383 401.955 215.021C401.955 205.66 394.384 198.069 385.046 198.069C375.707 198.069 368.136 205.66 368.136 215.021Z" fill="#04A761"/>
<path d="M215.488 215.021C215.488 224.383 223.06 231.973 232.398 231.973C241.736 231.973 249.308 224.383 249.308 215.021C249.308 205.66 241.736 198.069 232.398 198.069C223.06 198.069 215.488 205.66 215.488 215.021Z" fill="#04A761"/>
<path d="M62.8397 215.021C62.8397 224.383 70.4115 231.973 79.7496 231.973C89.0877 231.973 96.6594 224.383 96.6594 215.021C96.6594 205.66 89.0877 198.069 79.7496 198.069C70.4115 198.069 62.8397 205.66 62.8397 215.021Z" fill="#04A761"/>
</g>
<defs>
<clipPath id="clip0_40_728">
<rect width="610" height="280.755" fill="white" transform="matrix(1 0 0 -1 0 272.755)"/>
</clipPath>
</defs>
</svg>
