<svg width="58" height="58" viewBox="0 0 58 58" fill="none" xmlns="http://www.w3.org/2000/svg">
<path fill-rule="evenodd" clip-rule="evenodd" d="M16.9734 0.17328C20.054 0.032083 21.0359 0 28.88 0C36.7256 0 37.706 0.0336845 40.7849 0.17328C43.8606 0.312875 45.9609 0.802234 47.798 1.5162C49.7248 2.24164 51.4702 3.37828 52.9129 4.84704C54.3818 6.28954 55.5187 8.0351 56.2438 9.962C56.9577 11.7991 57.4455 13.8993 57.5867 16.9734C57.728 20.054 57.76 21.0359 57.76 28.88C57.76 36.7241 57.7264 37.706 57.5867 40.7867C57.447 43.8606 56.9577 45.9609 56.2438 47.798C55.5058 49.6962 54.5173 51.3085 52.9129 52.9129C51.4705 54.3818 49.7248 55.5187 47.798 56.2438C45.9609 56.9577 43.8606 57.4455 40.7867 57.5867C37.706 57.728 36.7241 57.76 28.88 57.76C21.0359 57.76 20.054 57.7264 16.9734 57.5867C13.8993 57.447 11.7991 56.9577 9.962 56.2438C8.06393 55.5058 6.45148 54.5173 4.84704 52.9129C3.37801 51.4705 2.2413 49.7248 1.5162 47.798C0.802234 45.9609 0.314477 43.8606 0.17328 40.7867C0.032083 37.706 0 36.7256 0 28.88C0 21.0343 0.0336845 20.054 0.17328 16.975C0.312875 13.8993 0.802234 11.7991 1.5162 9.962C2.24164 8.03523 3.37828 6.28975 4.84704 4.84704C6.28951 3.37801 8.03507 2.2413 9.962 1.5162C11.7991 0.802234 13.8993 0.314477 16.9734 0.17328ZM40.5507 5.37168C37.5054 5.23369 36.591 5.2032 28.88 5.2032C21.169 5.2032 20.2545 5.23369 17.2093 5.37168C14.3935 5.50004 12.8644 5.97013 11.8472 6.36644C10.4995 6.88948 9.53681 7.51521 8.52601 8.52601C7.51683 9.53681 6.88948 10.4995 6.36644 11.8472C5.97013 12.8644 5.50004 14.3935 5.37168 17.2093C5.23369 20.2545 5.2032 21.169 5.2032 28.88C5.2032 36.591 5.23369 37.5054 5.37168 40.5507C5.50004 43.3665 5.97013 44.8955 6.36644 45.9129C6.8291 47.1673 7.56706 48.3021 8.52601 49.2341C9.45778 50.1929 10.5927 50.9309 11.8472 51.3935C12.8644 51.79 14.3935 52.2599 17.2093 52.3883C20.2545 52.5264 21.1674 52.5569 28.88 52.5569C36.5925 52.5569 37.5054 52.5264 40.5507 52.3883C43.3665 52.2599 44.8955 51.79 45.9129 51.3935C47.2605 50.8705 48.2233 50.2449 49.2341 49.2341C50.1929 48.3023 50.9309 47.1673 51.3935 45.9129C51.79 44.8955 52.2599 43.3665 52.3883 40.5507C52.5264 37.5054 52.5569 36.591 52.5569 28.88C52.5569 21.169 52.5264 20.2545 52.3883 17.2093C52.2599 14.3935 51.79 12.8644 51.3935 11.8472C50.8705 10.4995 50.2449 9.53681 49.2341 8.52601C48.2233 7.51683 47.2605 6.88948 45.9129 6.36644C44.8955 5.97013 43.3665 5.50004 40.5507 5.37168ZM25.1926 37.7827C26.3617 38.2671 27.6145 38.5162 28.88 38.5162C31.4359 38.5162 33.8867 37.5009 35.6938 35.6938C37.5012 33.8867 38.5165 31.4356 38.5165 28.88C38.5165 26.3244 37.5012 23.8733 35.6938 22.0661C33.8867 20.259 31.4359 19.2437 28.88 19.2437C27.6145 19.2437 26.3617 19.493 25.1926 19.9772C24.0232 20.4615 22.961 21.1713 22.0662 22.0661C21.1714 22.9609 20.4616 24.0232 19.9773 25.1923C19.493 26.3614 19.2438 27.6145 19.2438 28.88C19.2438 30.1455 19.493 31.3986 19.9773 32.5677C20.4616 33.7368 21.1714 34.7991 22.0662 35.6938C22.961 36.5886 24.0232 37.2985 25.1926 37.7827ZM18.3836 18.3835C21.1674 15.5996 24.9431 14.0357 28.88 14.0357C32.8171 14.0357 36.5928 15.5996 39.3766 18.3835C42.1603 21.1673 43.7243 24.9431 43.7243 28.88C43.7243 32.8169 42.1603 36.5925 39.3766 39.3766C36.5928 42.1603 32.8171 43.7243 28.88 43.7243C24.9431 43.7243 21.1674 42.1603 18.3836 39.3766C15.5997 36.5925 14.0358 32.8169 14.0358 28.88C14.0358 24.9431 15.5997 21.1673 18.3836 18.3835ZM47.0159 16.2473C47.6738 15.5892 48.0435 14.6967 48.0435 13.7661C48.0435 12.8355 47.6738 11.943 47.0159 11.2849C46.3577 10.6269 45.4653 10.2572 44.5345 10.2572C43.6041 10.2572 42.7114 10.6269 42.0535 11.2849C41.3953 11.943 41.0256 12.8355 41.0256 13.7661C41.0256 14.6967 41.3953 15.5892 42.0535 16.2473C42.7114 16.9054 43.6041 17.275 44.5345 17.275C45.4653 17.275 46.3577 16.9054 47.0159 16.2473Z" fill="#666666"/>
</svg>
